# This file uses centimeters as units for non-parametric coordinates.

mtllib floor_and_roof.mtl
g default
v 1162.625244 2.822046 -1162.625488
v 425.550476 2.822046 -1588.175781
v -425.550446 2.822046 -1588.175903
v -1162.625488 2.822046 -1162.625244
v -1588.175781 2.822046 -425.550476
v -1588.175903 2.822046 425.550446
v -1162.625244 2.822046 1162.625488
v -425.550476 2.822046 1588.175781
v 425.550446 2.822046 1588.175903
v 1162.625488 2.822046 1162.625244
v 1588.175781 2.822046 425.550476
v 1588.175903 2.822046 -425.550446
v 0.000000 2.822046 0.000000
v 1162.625244 2.822046 -1162.625488
v 425.550476 2.822046 -1588.175781
v -425.550446 2.822046 -1588.175903
v -1162.625488 2.822046 -1162.625244
v -1588.175781 2.822046 -425.550476
v -1588.175903 2.822046 425.550446
v -1162.625244 2.822046 1162.625488
v -425.550476 2.822046 1588.175781
v 425.550446 2.822046 1588.175903
v 1162.625488 2.822046 1162.625244
v 1588.175781 2.822046 425.550476
v 1588.175903 2.822046 -425.550446
v 0.000000 2.822046 0.000000
vt 0.635316 0.921875
vt 0.578125 0.979066
vt 0.500000 0.837500
vt 0.500000 1.000000
vt 0.421875 0.979066
vt 0.364684 0.921875
vt 0.343750 0.843750
vt 0.364684 0.765625
vt 0.421875 0.708434
vt 0.500000 0.687500
vt 0.578125 0.708434
vt 0.635316 0.765625
vt 0.656250 0.843750
vt 0.635316 0.921875
vt 0.500000 0.837500
vt 0.578125 0.979066
vt 0.500000 1.000000
vt 0.421875 0.979066
vt 0.364684 0.921875
vt 0.343750 0.843750
vt 0.364684 0.765625
vt 0.421875 0.708434
vt 0.500000 0.687500
vt 0.578125 0.708434
vt 0.635316 0.765625
vt 0.656250 0.843750
vn 0.000000 1.000000 0.000000
vn 0.000000 1.000000 0.000000
vn 0.000000 1.000000 0.000000
vn 0.000000 1.000000 0.000000
vn 0.000000 1.000000 0.000000
vn 0.000000 1.000000 0.000000
vn 0.000000 1.000000 0.000000
vn 0.000000 1.000000 0.000000
vn 0.000000 1.000000 0.000000
vn 0.000000 1.000000 0.000000
vn 0.000000 1.000000 0.000000
vn 0.000000 1.000000 0.000000
vn 0.000000 1.000000 0.000000
vn 0.000000 1.000000 0.000000
vn 0.000000 1.000000 0.000000
vn 0.000000 1.000000 0.000000
vn 0.000000 1.000000 0.000000
vn 0.000000 1.000000 0.000000
vn 0.000000 1.000000 0.000000
vn 0.000000 1.000000 0.000000
vn 0.000000 1.000000 0.000000
vn 0.000000 1.000000 0.000000
vn 0.000000 1.000000 0.000000
vn 0.000000 1.000000 0.000000
vn 0.000000 1.000000 0.000000
vn 0.000000 1.000000 0.000000
vn 0.000000 1.000000 0.000000
vn 0.000000 1.000000 0.000000
vn 0.000000 1.000000 0.000000
vn 0.000000 1.000000 0.000000
vn 0.000000 1.000000 0.000000
vn 0.000000 1.000000 0.000000
vn 0.000000 1.000000 0.000000
vn 0.000000 1.000000 0.000000
vn 0.000000 1.000000 0.000000
vn 0.000000 1.000000 0.000000
vn 0.000000 -1.000000 0.000000
vn 0.000000 -1.000000 0.000000
vn 0.000000 -1.000000 0.000000
vn 0.000000 -1.000000 0.000000
vn 0.000000 -1.000000 0.000000
vn 0.000000 -1.000000 0.000000
vn 0.000000 -1.000000 0.000000
vn 0.000000 -1.000000 0.000000
vn 0.000000 -1.000000 0.000000
vn 0.000000 -1.000000 0.000000
vn 0.000000 -1.000000 0.000000
vn 0.000000 -1.000000 0.000000
vn 0.000000 -1.000000 0.000000
vn 0.000000 -1.000000 0.000000
vn 0.000000 -1.000000 0.000000
vn 0.000000 -1.000000 0.000000
vn 0.000000 -1.000000 0.000000
vn 0.000000 -1.000000 0.000000
vn 0.000000 -1.000000 0.000000
vn 0.000000 -1.000000 0.000000
vn 0.000000 -1.000000 0.000000
vn 0.000000 -1.000000 0.000000
vn 0.000000 -1.000000 0.000000
vn 0.000000 -1.000000 0.000000
vn 0.000000 -1.000000 0.000000
vn 0.000000 -1.000000 0.000000
vn 0.000000 -1.000000 0.000000
vn 0.000000 -1.000000 0.000000
vn 0.000000 -1.000000 0.000000
vn 0.000000 -1.000000 0.000000
vn 0.000000 -1.000000 0.000000
vn 0.000000 -1.000000 0.000000
vn 0.000000 -1.000000 0.000000
vn 0.000000 -1.000000 0.000000
vn 0.000000 -1.000000 0.000000
vn 0.000000 -1.000000 0.000000
s off
g floor_and_roof2
usemtl initialShadingGroup
f 1/1/1 2/2/2 13/3/3
f 2/2/4 3/4/5 13/3/6
f 3/4/7 4/5/8 13/3/9
f 4/5/10 5/6/11 13/3/12
f 5/6/13 6/7/14 13/3/15
f 6/7/16 7/8/17 13/3/18
f 7/8/19 8/9/20 13/3/21
f 8/9/22 9/10/23 13/3/24
f 9/10/25 10/11/26 13/3/27
f 10/11/28 11/12/29 13/3/30
f 11/12/31 12/13/32 13/3/33
f 12/13/34 1/1/35 13/3/36
f 14/14/37 26/15/38 15/16/39
f 15/16/40 26/15/41 16/17/42
f 16/17/43 26/15/44 17/18/45
f 17/18/46 26/15/47 18/19/48
f 18/19/49 26/15/50 19/20/51
f 19/20/52 26/15/53 20/21/54
f 20/21/55 26/15/56 21/22/57
f 21/22/58 26/15/59 22/23/60
f 22/23/61 26/15/62 23/24/63
f 23/24/64 26/15/65 24/25/66
f 24/25/67 26/15/68 25/26/69
f 25/26/70 26/15/71 14/14/72
