# This file uses centimeters as units for non-parametric coordinates.

mtllib splitter_005.mtl
g default
v 1.765169 1.039203 -0.013457
v 2.360939 0.103085 -1.793250
v -2.360939 0.103085 -0.259021
v -1.626607 -1.039203 1.620881
v 1.269695 -0.382105 1.793250
v 1.687890 -1.039203 0.543925
vt 0.548284 0.992353
vt 0.453900 0.961685
vt 0.536565 0.954769
vt 0.000000 0.000000
vt 1.000000 0.000000
vt 1.000000 1.000000
vt 0.000000 1.000000
vt 0.000000 0.000000
vt 1.000000 0.000000
vt 1.000000 1.000000
vt 0.000000 1.000000
vt 0.000000 0.000000
vt 1.000000 0.000000
vt 1.000000 1.000000
vt 0.000000 1.000000
vt 0.059920 0.000000
vt 1.000000 0.000000
vt 0.000000 0.461357
vn -0.162933 0.849701 -0.501459
vn -0.162933 0.849701 -0.501459
vn -0.162933 0.849701 -0.501459
vn -0.214199 0.795395 0.566980
vn -0.214199 0.795394 0.566980
vn -0.214199 0.795394 0.566980
vn -0.214199 0.795394 0.566980
vn 0.954099 0.043972 0.296247
vn 0.954099 0.043972 0.296247
vn 0.954099 0.043972 0.296247
vn 0.954099 0.043972 0.296247
vn -0.152407 -0.869918 -0.469058
vn -0.152407 -0.869918 -0.469058
vn -0.152407 -0.869918 -0.469058
vn -0.152407 -0.869918 -0.469058
vn 0.162933 -0.849704 0.501453
vn 0.162933 -0.849704 0.501453
vn 0.162933 -0.849704 0.501453
s off
g polySurface614 polySurface182
usemtl initialShadingGroup
f 2/1/1 3/2/2 1/3/3
f 1/4/4 3/5/5 4/6/6 5/7/7
f 2/8/8 1/9/9 5/10/10 6/11/11
f 3/12/12 2/13/13 6/14/14 4/15/15
f 5/16/16 4/17/17 6/18/18
