# This file uses centimeters as units for non-parametric coordinates.

mtllib splitter_003.mtl
g default
v -1.299758 -2.172164 1.119711
v -0.632076 2.172164 -2.476690
v -0.632076 2.172164 2.456144
v 0.831076 -2.019604 1.538589
v 1.299757 1.029877 -0.985884
v 1.299757 1.029877 2.476690
vt 0.719976 0.190537
vt 0.615919 0.439813
vt 1.000000 0.439813
vt 0.000000 0.000000
vt 1.000000 0.000000
vt 1.000000 1.000000
vt 0.000000 1.000000
vt 0.000000 0.000000
vt 1.000000 0.000000
vt 1.000000 1.000000
vt 0.000000 1.000000
vt 0.000000 0.000000
vt 1.000000 0.000000
vt 1.000000 1.000000
vt 0.000000 1.000000
vt 0.000000 0.000000
vt 1.000000 0.000000
vt 0.449962 0.672229
vn -0.988395 0.151907 0.000000
vn -0.988395 0.151907 0.000000
vn -0.988395 0.151907 0.000000
vn 0.191778 -0.643168 -0.741321
vn 0.191778 -0.643168 -0.741321
vn 0.191778 -0.643168 -0.741321
vn 0.191778 -0.643168 -0.741321
vn -0.167535 -0.266260 0.949230
vn -0.167535 -0.266260 0.949230
vn -0.167535 -0.266260 0.949230
vn -0.167535 -0.266260 0.949230
vn 0.508977 0.860780 0.000000
vn 0.508977 0.860780 0.000000
vn 0.508977 0.860780 0.000000
vn 0.508977 0.860780 0.000000
vn 0.988395 -0.151908 0.000000
vn 0.988395 -0.151908 0.000000
vn 0.988395 -0.151908 0.000000
s off
g polySurface610 polySurface182
usemtl initialShadingGroup
f 1/1/1 3/2/2 2/3/3
f 1/4/4 2/5/5 5/6/6 4/7/7
f 3/8/8 1/9/9 4/10/10 6/11/11
f 2/12/12 3/13/13 6/14/14 5/15/15
f 4/16/16 5/17/17 6/18/18
