# This file uses centimeters as units for non-parametric coordinates.

mtllib splitter_001.mtl
g default
v 0.095171 1.122511 -0.837038
v -1.053795 0.610533 -0.521807
v 1.117853 -0.952957 -1.404814
v -1.293986 -1.187594 -0.647783
v -0.398992 -1.127122 1.316380
v -0.230387 0.135064 1.404814
v 0.576122 0.494447 1.183537
v 1.293986 -0.962420 0.784979
vt 0.136685 0.194827
vt 0.276163 0.202225
vt 0.276415 0.302409
vt 0.213159 0.321642
vt 0.000000 0.000000
vt 1.000000 0.000000
vt 1.000000 1.000000
vt 0.000000 1.000000
vt 0.000000 0.000000
vt 1.000000 0.000000
vt 1.000000 1.000000
vt 0.000000 1.000000
vt 0.000000 0.000000
vt 1.000000 0.000000
vt 1.000000 1.000000
vt 0.000000 1.000000
vt 0.000000 0.000000
vt 1.000000 0.000000
vt 1.000000 1.000000
vt 0.000000 1.000000
vt 0.255557 0.000000
vt 0.986049 0.000000
vt 0.785943 1.000000
vt 0.000000 0.453927
vn -0.307233 0.107286 -0.945567
vn -0.307233 0.107286 -0.945567
vn -0.307233 0.107286 -0.945567
vn -0.307233 0.107286 -0.945567
vn -0.907159 0.092417 0.410513
vn -0.907159 0.092417 0.410513
vn -0.907159 0.092417 0.410513
vn -0.907159 0.092417 0.410513
vn 0.887196 0.456146 -0.069390
vn 0.887196 0.456146 -0.069390
vn 0.887196 0.456146 -0.069390
vn 0.887196 0.456146 -0.069390
vn -0.300421 0.888214 0.347596
vn -0.300421 0.888214 0.347596
vn -0.300421 0.888214 0.347596
vn -0.300421 0.888214 0.347596
vn 0.093154 -0.995582 -0.011795
vn 0.093154 -0.995582 -0.011795
vn 0.093154 -0.995582 -0.011795
vn 0.093154 -0.995582 -0.011795
vn 0.307237 -0.107291 0.945565
vn 0.307237 -0.107291 0.945565
vn 0.307237 -0.107291 0.945565
vn 0.307237 -0.107291 0.945565
s off
g polySurface646 polySurface182
usemtl initialShadingGroup
f 3/1/1 4/2/2 2/3/3 1/4/4
f 2/5/5 4/6/6 5/7/7 6/8/8
f 3/9/9 1/10/10 7/11/11 8/12/12
f 1/13/13 2/14/14 6/15/15 7/16/16
f 4/17/17 3/18/18 8/19/19 5/20/20
f 6/21/21 5/22/22 8/23/23 7/24/24
