# This file uses centimeters as units for non-parametric coordinates.

mtllib splitter_004.mtl
g default
v 0.214318 -1.744874 0.768749
v -0.444830 1.599347 0.836473
v 0.688159 -0.418250 1.530931
v -2.020090 1.394746 -0.783257
v 0.119036 1.601256 -1.530931
v 1.224790 1.744874 -0.393967
v 1.687476 -0.602586 -0.441513
v 2.020090 0.328631 0.093500
vt 0.235046 0.076121
vt 0.289118 0.191890
vt 0.415234 0.180150
vt 0.294391 0.000000
vt 0.000000 0.000000
vt 1.000000 0.000000
vt 1.000000 1.000000
vt 0.000000 1.000000
vt 0.000000 0.000000
vt 1.000000 0.000000
vt 1.000000 1.000000
vt 0.000000 1.000000
vt 0.000000 0.000000
vt 1.000000 0.000000
vt 1.000000 1.000000
vt 0.000000 1.000000
vt 0.000000 0.000000
vt 1.000000 0.000000
vt 1.000000 1.000000
vt 0.000000 1.000000
vt 0.000000 0.000000
vt 1.000000 0.000000
vt 0.687617 0.447927
vt 0.111447 0.369085
vn -0.698900 -0.151907 0.698901
vn -0.698900 -0.151907 0.698901
vn -0.698900 -0.151907 0.698901
vn -0.698900 -0.151907 0.698901
vn -0.104394 0.994245 -0.024063
vn -0.104394 0.994245 -0.024063
vn -0.104394 0.994245 -0.024063
vn -0.104394 0.994245 -0.024063
vn -0.225869 -0.556121 -0.799820
vn -0.225869 -0.556121 -0.799820
vn -0.225869 -0.556121 -0.799820
vn -0.225869 -0.556121 -0.799820
vn 0.746407 -0.511319 0.425945
vn 0.746407 -0.511319 0.425945
vn 0.746407 -0.511319 0.425945
vn 0.746407 -0.511319 0.425945
vn 0.479395 0.514036 0.711300
vn 0.479395 0.514036 0.711300
vn 0.479395 0.514036 0.711300
vn 0.479395 0.514036 0.711300
vn 0.698898 0.151909 -0.698903
vn 0.698898 0.151909 -0.698903
vn 0.698898 0.151909 -0.698903
vn 0.698898 0.151909 -0.698903
s off
g polySurface583 polySurface182
usemtl initialShadingGroup
f 3/1/1 2/2/2 4/3/3 1/4/4
f 4/5/5 2/6/6 6/7/7 5/8/8
f 1/9/9 4/10/10 5/11/11 7/12/12
f 3/13/13 1/14/14 7/15/15 8/16/16
f 2/17/17 3/18/18 8/19/19 6/20/20
f 7/21/21 5/22/22 6/23/23 8/24/24
